<svg width="24" height="24" viewBox="0 0 24 24" fill="none" xmlns="http://www.w3.org/2000/svg">
<path d="M19.36 2.72L20.78 4.14L15.06 9.85C16.13 11.39 16.28 13.24 15.38 14.44L9.06 8.12C10.26 7.22 12.11 7.37 13.65 8.44L19.36 2.72Z" fill="#B70C15"/>
<path d="M5.93 17.57L3.5 20L2 18.5L4.43 16.07L5.93 17.57Z" fill="#E57373"/>
<path d="M7.05 16.46L2.72 12.13C2.33 11.74 2.33 11.11 2.72 10.72L6.05 7.39L16.61 17.95L13.28 21.28C12.89 21.67 12.26 21.67 11.87 21.28L7.05 16.46Z" fill="#E57373"/>
<rect x="4" y="14" width="2" height="6" rx="1" fill="#B70C15"/>
</svg>
