<svg width="32" height="32" viewBox="0 0 32 32" fill="none" xmlns="http://www.w3.org/2000/svg">
<rect width="32" height="32" rx="8" fill="#B70C15"/>
<path d="M26 26C26 26 24.75 25 19 25C13.25 25 12 26 12 26V24.5C12 24.5 13.25 23.5 19 23.5C24.75 23.5 26 24.5 26 24.5V26Z" fill="white"/>
<path d="M6.5 24.5H7C7 24.5 8.25 23.5 14 23.5C19.75 23.5 21 24.5 21 24.5H21.25L23 14H3L4.75 24.5H6.5Z" fill="#E57373"/>
<path d="M14 18C15.38 18 16.5 16.88 16.5 15.5C16.5 14.12 15.38 13 14 13C12.62 13 11.5 14.12 11.5 15.5C11.5 16.88 12.62 18 14 18Z" fill="white"/>
<path d="M14 16.5C14.55 16.5 15 16.05 15 15.5C15 14.95 14.55 14.5 14 14.5C13.45 14.5 13 14.95 13 15.5C13 16.05 13.45 16.5 14 16.5Z" fill="#B70C15"/>
</svg>
