<svg width="24" height="24" viewBox="0 0 24 24" fill="none" xmlns="http://www.w3.org/2000/svg">
<path d="M20 21C20 21 18.5 20 12 20C5.5 20 4 21 4 21V19C4 19 5.5 18 12 18C18.5 18 20 19 20 19V21Z" fill="#B70C15"/>
<path d="M3.95 19H4C4 19 5.5 18 12 18C18.5 18 20 19 20 19H20.05L22 6H2L3.95 19Z" fill="#E57373"/>
<path d="M12 12C13.66 12 15 10.66 15 9C15 7.34 13.66 6 12 6C10.34 6 9 7.34 9 9C9 10.66 10.34 12 12 12Z" fill="white"/>
<path d="M12 10C12.55 10 13 9.55 13 9C13 8.45 12.55 8 12 8C11.45 8 11 8.45 11 9C11 9.55 11.45 10 12 10Z" fill="#B70C15"/>
</svg>
